<svg xmlns="http://www.w3.org/2000/svg" width="40" height="40" viewBox="0 0 681.000000 672.000000" preserveAspectRatio="xMidYMid meet">
	<g transform="translate(0.000000,672.000000) scale(0.100000,-0.100000)"  stroke="none">
	    <path fill="#E80000" d="M3205 6610 c-1018 -62 -1941 -587 -2514 -1430 -310 -456 -494 -963 -552 -1525 -17 -162 -14 -514 5 -680 113 -961 624 -1807 1416 -2344 445 -302 931 -482 1475 -547 285 -33 680 -19 975 37 1005 190 1874 850 2324 1764 370 750 441 1584 206 2390 -261 892 -925 1656 -1775 2043 -486 221 -1034 324 -1560 292z m893 -1997 l2 -573 575 0 575 0 0 -700 0 -700 -575 0 -575 0 -2 -573 -3 -572 -700 0 -700 0 -3 572 -2 573 -570 0 -570 0 0 700 0 700 570 0 570 0 0 568 c0 313 3 572 7 575 3 4 320 6 702 5 l696 -3 3 -572z"/>
	</g>
</svg>